STARTFONT 2.1
FONT -xos4-ClortDamsel-Normal-R-Normal--20-190-75-75-C-100-ISO10646-1
SIZE 20 72 72
FONTBOUNDINGBOX 20 20 -1 -4
COMMENT "Generated by fontforge, http://fontforge.sourceforge.net"
COMMENT "ClortDamsel-20"
STARTPROPERTIES 20
FAMILY_NAME "ClortDamsel"
FOUNDRY "xos4"
SETWIDTH_NAME "Normal"
ADD_STYLE_NAME "Damsel"
COPYRIGHT "Creative Commons SA ("Clort")"
NOTICE "Licensed under the BSD License"
WEIGHT_NAME "Normal"
SLANT "R"
PIXEL_SIZE 20
POINT_SIZE 190
RESOLUTION_X 75
RESOLUTION_Y 75
SPACING "C"
AVERAGE_WIDTH 100
CHARSET_REGISTRY "ISO10646"
CHARSET_ENCODING "1"
MIN_SPACE 4
FONT_ASCENT 16
FONT_DESCENT 4
DEFAULT_CHAR 65533
ENDPROPERTIES
CHARS 127
STARTCHAR exclam
ENCODING 33
SWIDTH 250 0
DWIDTH 5 0
BBX 3 13 1 0
BITMAP
E0
E0
E0
E0
E0
E0
C0
C0
80
00
40
C0
C0
ENDCHAR
STARTCHAR quotedbl
ENCODING 34
SWIDTH 350 0
DWIDTH 7 0
BBX 6 4 0 9
BITMAP
CC
CC
CC
88
ENDCHAR
STARTCHAR numbersign
ENCODING 35
SWIDTH 500 0
DWIDTH 10 0
BBX 8 13 1 0
BITMAP
22
66
66
66
FF
66
66
66
FF
66
66
66
44
ENDCHAR
STARTCHAR dollar
ENCODING 36
SWIDTH 450 0
DWIDTH 9 0
BBX 8 15 0 -1
BITMAP
08
18
3E
4B
D8
D8
D0
7E
13
1B
1B
CA
7C
18
10
ENDCHAR
STARTCHAR percent
ENCODING 37
SWIDTH 500 0
DWIDTH 10 0
BBX 7 12 1 0
BITMAP
E6
A6
EC
0C
18
18
30
30
60
6E
CA
CE
ENDCHAR
STARTCHAR ampersand
ENCODING 38
SWIDTH 600 0
DWIDTH 12 0
BBX 11 13 0 0
BITMAP
1E00
3300
3300
3300
1E00
0C00
3C60
66C0
C380
C180
E3C0
7660
3C20
ENDCHAR
STARTCHAR quotesingle
ENCODING 39
SWIDTH 150 0
DWIDTH 3 0
BBX 2 4 0 9
BITMAP
C0
C0
C0
80
ENDCHAR
STARTCHAR parenleft
ENCODING 40
SWIDTH 500 0
DWIDTH 10 0
BBX 4 15 3 -1
BITMAP
10
30
60
60
C0
C0
C0
C0
C0
C0
C0
60
60
30
10
ENDCHAR
STARTCHAR parenright
ENCODING 41
SWIDTH 500 0
DWIDTH 10 0
BBX 4 15 3 -1
BITMAP
80
C0
60
60
30
30
30
30
30
30
30
60
60
C0
80
ENDCHAR
STARTCHAR asterisk
ENCODING 42
SWIDTH 500 0
DWIDTH 10 0
BBX 9 7 0 3
BITMAP
6300
3600
1C00
FF80
1C00
3600
6300
ENDCHAR
STARTCHAR plus
ENCODING 43
SWIDTH 500 0
DWIDTH 10 0
BBX 8 7 1 3
BITMAP
18
18
18
FF
18
18
18
ENDCHAR
STARTCHAR comma
ENCODING 44
SWIDTH 200 0
DWIDTH 4 0
BBX 3 4 0 -1
BITMAP
60
60
60
C0
ENDCHAR
STARTCHAR hyphen
ENCODING 45
SWIDTH 500 0
DWIDTH 10 0
BBX 8 1 1 6
BITMAP
FF
ENDCHAR
STARTCHAR period
ENCODING 46
SWIDTH 150 0
DWIDTH 3 0
BBX 2 2 0 0
BITMAP
C0
C0
ENDCHAR
STARTCHAR slash
ENCODING 47
SWIDTH 500 0
DWIDTH 10 0
BBX 7 12 1 0
BITMAP
06
06
0C
0C
18
18
30
30
60
60
C0
C0
ENDCHAR
STARTCHAR zero
ENCODING 48
SWIDTH 500 0
DWIDTH 10 0
BBX 9 13 0 0
BITMAP
3E00
6300
E380
C180
C180
C180
C180
C180
C180
C180
E380
6300
3E00
ENDCHAR
STARTCHAR one
ENCODING 49
SWIDTH 350 0
DWIDTH 7 0
BBX 6 13 0 0
BITMAP
10
30
F0
30
30
30
30
30
30
30
30
30
FC
ENDCHAR
STARTCHAR two
ENCODING 50
SWIDTH 550 0
DWIDTH 11 0
BBX 9 13 1 0
BITMAP
3E00
C300
8180
0180
0180
0300
0E00
3C00
7000
E000
C000
DF00
F180
ENDCHAR
STARTCHAR three
ENCODING 51
SWIDTH 400 0
DWIDTH 8 0
BBX 7 14 0 -1
BITMAP
78
9C
0C
0C
0C
18
38
0C
0E
06
06
06
1C
F0
ENDCHAR
STARTCHAR four
ENCODING 52
SWIDTH 450 0
DWIDTH 9 0
BBX 8 14 0 -1
BITMAP
06
0E
1E
36
66
66
C6
C6
FF
02
06
06
06
04
ENDCHAR
STARTCHAR five
ENCODING 53
SWIDTH 450 0
DWIDTH 9 0
BBX 8 14 0 -1
BITMAP
FE
C0
C0
C0
F0
7C
0E
07
03
03
03
03
CE
F8
ENDCHAR
STARTCHAR six
ENCODING 54
SWIDTH 500 0
DWIDTH 10 0
BBX 9 13 0 0
BITMAP
0E00
3800
6000
6000
C000
CE00
D300
C180
C180
C180
C380
6700
3E00
ENDCHAR
STARTCHAR seven
ENCODING 55
SWIDTH 500 0
DWIDTH 10 0
BBX 9 14 0 -1
BITMAP
FF80
8180
0380
0300
0600
0600
0C00
0C00
1800
1800
3800
3800
3000
2000
ENDCHAR
STARTCHAR eight
ENCODING 56
SWIDTH 550 0
DWIDTH 11 0
BBX 10 13 0 0
BITMAP
3F00
6380
4180
4180
6300
3F00
6180
C0C0
C0C0
C0C0
C1C0
6380
3F00
ENDCHAR
STARTCHAR nine
ENCODING 57
SWIDTH 500 0
DWIDTH 10 0
BBX 9 14 0 -1
BITMAP
3E00
6700
C380
C180
C180
C180
E380
7F80
3980
0300
0300
0600
1C00
7000
ENDCHAR
STARTCHAR colon
ENCODING 58
SWIDTH 200 0
DWIDTH 4 0
BBX 2 8 1 1
BITMAP
C0
C0
00
00
00
00
C0
C0
ENDCHAR
STARTCHAR semicolon
ENCODING 59
SWIDTH 200 0
DWIDTH 4 0
BBX 3 10 0 -1
BITMAP
60
60
00
00
00
00
60
60
60
C0
ENDCHAR
STARTCHAR less
ENCODING 60
SWIDTH 500 0
DWIDTH 10 0
BBX 8 13 1 0
BITMAP
03
06
0C
18
30
60
C0
60
30
18
0C
06
03
ENDCHAR
STARTCHAR equal
ENCODING 61
SWIDTH 500 0
DWIDTH 10 0
BBX 8 5 1 4
BITMAP
FF
00
00
00
FF
ENDCHAR
STARTCHAR greater
ENCODING 62
SWIDTH 500 0
DWIDTH 10 0
BBX 8 13 1 0
BITMAP
C0
60
30
18
0C
06
03
06
0C
18
30
60
C0
ENDCHAR
STARTCHAR question
ENCODING 63
SWIDTH 500 0
DWIDTH 10 0
BBX 9 13 0 0
BITMAP
3E00
7300
E180
6180
2180
0300
0600
0C00
1800
1C00
0000
1C00
1C00
ENDCHAR
STARTCHAR at
ENCODING 64
SWIDTH 500 0
DWIDTH 10 0
BBX 9 12 0 0
BITMAP
3E00
7300
E180
CF80
DD80
D980
D180
DB80
CF00
C000
6000
3F80
ENDCHAR
STARTCHAR A
ENCODING 65
SWIDTH 850 0
DWIDTH 17 0
BBX 17 13 0 -1
BITMAP
01FC00
071E00
0C1600
082600
046600
004600
00FE00
018600
030600
430600
860600
CC0380
780000
ENDCHAR
STARTCHAR B
ENCODING 66
SWIDTH 700 0
DWIDTH 14 0
BBX 13 13 0 0
BITMAP
1FE0
7070
C618
C618
4618
0630
0660
06F0
0618
0618
0618
0E38
3FF0
ENDCHAR
STARTCHAR C
ENCODING 67
SWIDTH 600 0
DWIDTH 12 0
BBX 11 13 0 0
BITMAP
1F00
31A0
61C0
E000
C000
C000
C000
C000
C000
E000
6060
78C0
3F80
ENDCHAR
STARTCHAR D
ENCODING 68
SWIDTH 750 0
DWIDTH 15 0
BBX 14 13 0 0
BITMAP
1FE0
7070
C618
C618
460C
060C
060C
060C
060C
060C
061C
0638
1FF0
ENDCHAR
STARTCHAR E
ENCODING 69
SWIDTH 700 0
DWIDTH 14 0
BBX 13 13 0 0
BITMAP
1E18
63F0
C400
8600
4600
0600
07E0
0400
0600
0600
0608
0E18
3FF8
ENDCHAR
STARTCHAR F
ENCODING 70
SWIDTH 750 0
DWIDTH 15 0
BBX 15 16 0 -3
BITMAP
1F06
60FC
C100
8180
C180
4180
03F8
0100
0180
0180
0180
2180
4180
4300
6300
3E00
ENDCHAR
STARTCHAR G
ENCODING 71
SWIDTH 650 0
DWIDTH 13 0
BBX 13 13 0 0
BITMAP
1F80
39C8
60F0
6060
C000
C000
C3E0
C630
C030
E030
6070
79E0
1FC0
ENDCHAR
STARTCHAR H
ENCODING 72
SWIDTH 800 0
DWIDTH 16 0
BBX 15 13 0 0
BITMAP
7E0E
CC18
0C38
0C18
0C18
0C18
0FF8
0818
0C18
0C18
0C18
1C18
7E3E
ENDCHAR
STARTCHAR I
ENCODING 73
SWIDTH 650 0
DWIDTH 13 0
BBX 12 14 0 -1
BITMAP
7830
C7C0
8400
0600
0600
0600
0600
0600
0600
0600
0600
0E10
7FE0
8000
ENDCHAR
STARTCHAR J
ENCODING 74
SWIDTH 600 0
DWIDTH 12 0
BBX 11 16 0 -3
BITMAP
1FE0
3860
6060
6060
2060
1060
0060
0060
0060
0060
4060
8060
8060
C0C0
E1C0
7F00
ENDCHAR
STARTCHAR K
ENCODING 75
SWIDTH 500 0
DWIDTH 16 0
BBX 16 13 0 0
BITMAP
1EC6
738C
E30C
C30C
4318
2310
03B0
0360
0330
0318
0318
070C
1FCF
ENDCHAR
STARTCHAR L
ENCODING 76
SWIDTH 650 0
DWIDTH 13 0
BBX 12 14 0 -1
BITMAP
0F80
0CC0
1840
1800
1800
1800
1800
1800
1800
1800
1800
1810
7FE0
C000
ENDCHAR
STARTCHAR M
ENCODING 77
SWIDTH 950 0
DWIDTH 19 0
BBX 19 13 0 0
BITMAP
0FC0C0
38E1C0
20E3C0
00E3C0
01E6C0
016CC0
036CC0
0278C0
4670C0
8470C0
8C60C0
D860C0
7040E0
ENDCHAR
STARTCHAR N
ENCODING 78
SWIDTH 750 0
DWIDTH 15 0
BBX 14 13 0 0
BITMAP
7C1C
CE18
8718
8718
4598
0698
06D8
0658
0678
0638
0638
0E18
7F18
ENDCHAR
STARTCHAR O
ENCODING 79
SWIDTH 650 0
DWIDTH 13 0
BBX 12 13 0 0
BITMAP
1F80
30C0
6060
E030
C030
C030
C030
C030
C030
E030
6060
38E0
1F80
ENDCHAR
STARTCHAR P
ENCODING 80
SWIDTH 700 0
DWIDTH 14 0
BBX 13 13 0 0
BITMAP
1FE0
7030
C618
8618
8618
4638
0670
06C0
0680
0600
0600
0700
3FC0
ENDCHAR
STARTCHAR Q
ENCODING 81
SWIDTH 700 0
DWIDTH 14 0
BBX 13 13 0 0
BITMAP
0F80
39C0
6060
6060
C030
C030
C030
C030
C1B0
E1F0
6060
78F8
1F98
ENDCHAR
STARTCHAR R
ENCODING 82
SWIDTH 800 0
DWIDTH 16 0
BBX 16 13 0 0
BITMAP
1FF0
7018
C30C
830C
830C
431C
0338
0370
0338
0318
0318
071C
3FCF
ENDCHAR
STARTCHAR S
ENCODING 83
SWIDTH 600 0
DWIDTH 12 0
BBX 10 13 1 0
BITMAP
1F80
3180
6080
6000
7000
3C00
0F00
0380
01C0
C0C0
60C0
71C0
3F80
ENDCHAR
STARTCHAR T
ENCODING 84
SWIDTH 650 0
DWIDTH 13 0
BBX 13 13 0 0
BITMAP
3E18
C7F0
8200
8300
4300
0300
0300
0300
0300
0300
0320
0320
01C0
ENDCHAR
STARTCHAR U
ENCODING 85
SWIDTH 750 0
DWIDTH 15 0
BBX 14 13 0 0
BITMAP
781C
DC30
8C30
8C30
4C30
0C30
0C30
0C30
0C30
0C30
0E70
07F8
03DC
ENDCHAR
STARTCHAR V
ENCODING 86
SWIDTH 750 0
DWIDTH 15 0
BBX 15 13 0 0
BITMAP
7E3E
C610
8C10
8C18
4C18
0C18
0C18
0C18
0C10
0630
0660
03C0
0180
ENDCHAR
STARTCHAR W
ENCODING 87
SWIDTH 900 0
DWIDTH 18 0
BBX 18 13 0 0
BITMAP
7000C0
982180
986180
0C6180
0C6180
0C6380
0C6300
0CE300
0CF700
0FDE00
079E00
070C00
060C00
ENDCHAR
STARTCHAR X
ENCODING 88
SWIDTH 750 0
DWIDTH 15 0
BBX 14 14 0 -1
BITMAP
FC0C
381C
1C18
0E30
0660
0740
0380
03C0
03C0
06E0
6C70
9C38
B87C
7400
ENDCHAR
STARTCHAR Y
ENCODING 89
SWIDTH 800 0
DWIDTH 16 0
BBX 16 16 0 -3
BITMAP
7C0F
C60E
860C
8C0C
0C0C
0C1C
0C1C
063C
07EC
03CC
000C
000C
1818
0418
03F0
01E0
ENDCHAR
STARTCHAR Z
ENCODING 90
SWIDTH 750 0
DWIDTH 15 0
BBX 14 14 0 -1
BITMAP
E01C
7FF8
0018
0070
00E0
0180
1FE0
0600
1C00
3800
3000
73E0
7FF8
380C
ENDCHAR
STARTCHAR bracketleft
ENCODING 91
SWIDTH 500 0
DWIDTH 10 0
BBX 4 13 3 0
BITMAP
F0
C0
C0
C0
C0
C0
C0
C0
C0
C0
C0
C0
F0
ENDCHAR
STARTCHAR backslash
ENCODING 92
SWIDTH 500 0
DWIDTH 10 0
BBX 7 12 1 0
BITMAP
C0
C0
60
60
30
30
18
18
0C
0C
06
06
ENDCHAR
STARTCHAR bracketright
ENCODING 93
SWIDTH 500 0
DWIDTH 10 0
BBX 4 13 3 0
BITMAP
F0
30
30
30
30
30
30
30
30
30
30
30
F0
ENDCHAR
STARTCHAR asciicircum
ENCODING 94
SWIDTH 450 0
DWIDTH 9 0
BBX 8 4 0 10
BITMAP
18
3C
66
C3
ENDCHAR
STARTCHAR underscore
ENCODING 95
SWIDTH 500 0
DWIDTH 10 0
BBX 8 1 1 -1
BITMAP
FF
ENDCHAR
STARTCHAR grave
ENCODING 96
SWIDTH 250 0
DWIDTH 5 0
BBX 3 3 1 11
BITMAP
C0
60
20
ENDCHAR
STARTCHAR a
ENCODING 97
SWIDTH 550 0
DWIDTH 11 0
BBX 10 9 0 0
BITMAP
3F00
6300
C300
C300
C300
C300
C340
E740
7D80
ENDCHAR
STARTCHAR b
ENCODING 98
SWIDTH 500 0
DWIDTH 10 0
BBX 9 14 0 0
BITMAP
2000
6000
E000
6000
6000
6E00
7300
6180
6180
6180
6180
6180
6300
3E00
ENDCHAR
STARTCHAR c
ENCODING 99
SWIDTH 450 0
DWIDTH 9 0
BBX 8 9 0 0
BITMAP
3E
66
40
C0
C0
C0
C1
E3
7E
ENDCHAR
STARTCHAR d
ENCODING 100
SWIDTH 550 0
DWIDTH 11 0
BBX 10 15 0 0
BITMAP
0100
0300
0700
0300
0300
0300
3F00
6300
C300
C300
C300
C300
C340
6740
3D80
ENDCHAR
STARTCHAR e
ENCODING 101
SWIDTH 450 0
DWIDTH 9 0
BBX 8 9 0 0
BITMAP
3E
46
C3
C3
CE
F0
C1
C3
7E
ENDCHAR
STARTCHAR f
ENCODING 102
SWIDTH 350 0
DWIDTH 7 0
BBX 7 18 0 -4
BITMAP
1E
18
30
30
30
FC
30
30
30
30
30
30
30
30
30
30
20
C0
ENDCHAR
STARTCHAR g
ENCODING 103
SWIDTH 450 0
DWIDTH 9 0
BBX 9 13 -1 -4
BITMAP
1F80
3180
6180
6180
6180
6180
6380
3780
1D80
0180
3300
7E00
9C00
ENDCHAR
STARTCHAR h
ENCODING 104
SWIDTH 600 0
DWIDTH 12 0
BBX 11 14 0 0
BITMAP
2000
6000
E000
6000
6000
6700
7980
6180
6180
6180
6180
61A0
61A0
71C0
ENDCHAR
STARTCHAR i
ENCODING 105
SWIDTH 350 0
DWIDTH 7 0
BBX 6 13 0 0
BITMAP
60
60
40
00
20
60
E0
60
60
60
64
64
F8
ENDCHAR
STARTCHAR j
ENCODING 106
SWIDTH 350 0
DWIDTH 7 0
BBX 6 17 0 -4
BITMAP
0C
0C
08
00
04
0C
1C
0C
0C
0C
0C
0C
0C
8C
8C
D8
70
ENDCHAR
STARTCHAR k
ENCODING 107
SWIDTH 550 0
DWIDTH 11 0
BBX 10 14 0 0
BITMAP
2000
6000
E000
6000
6700
6980
6180
6300
6E00
7800
7C00
6640
6340
7380
ENDCHAR
STARTCHAR l
ENCODING 108
SWIDTH 350 0
DWIDTH 7 0
BBX 6 14 0 0
BITMAP
20
60
E0
60
60
60
60
60
60
60
60
64
64
38
ENDCHAR
STARTCHAR m
ENCODING 109
SWIDTH 850 0
DWIDTH 17 0
BBX 16 9 0 0
BITMAP
6738
F9CC
318C
318C
318C
318C
318D
318D
398E
ENDCHAR
STARTCHAR n
ENCODING 110
SWIDTH 600 0
DWIDTH 12 0
BBX 11 9 0 0
BITMAP
6F00
F980
6180
6180
6180
6180
61A0
61A0
71C0
ENDCHAR
STARTCHAR o
ENCODING 111
SWIDTH 450 0
DWIDTH 9 0
BBX 8 9 0 0
BITMAP
3E
67
C3
C3
C3
C3
C3
E6
7C
ENDCHAR
STARTCHAR p
ENCODING 112
SWIDTH 500 0
DWIDTH 10 0
BBX 9 13 0 -4
BITMAP
DF00
7380
6180
6180
6180
6180
6180
7300
7E00
6000
6000
6000
C000
ENDCHAR
STARTCHAR q
ENCODING 113
SWIDTH 500 0
DWIDTH 10 0
BBX 9 13 0 -4
BITMAP
3D80
6700
C300
C300
C300
C300
C300
E700
7B00
0300
0300
0300
0180
ENDCHAR
STARTCHAR r
ENCODING 114
SWIDTH 450 0
DWIDTH 9 0
BBX 8 10 0 0
BITMAP
26
6F
F1
60
60
60
60
60
60
70
ENDCHAR
STARTCHAR s
ENCODING 115
SWIDTH 450 0
DWIDTH 9 0
BBX 8 9 0 0
BITMAP
3C
66
C2
E0
7E
07
83
C7
7E
ENDCHAR
STARTCHAR t
ENCODING 116
SWIDTH 400 0
DWIDTH 8 0
BBX 7 14 0 0
BITMAP
10
30
30
30
30
FE
30
30
30
30
30
32
32
1C
ENDCHAR
STARTCHAR u
ENCODING 117
SWIDTH 500 0
DWIDTH 10 0
BBX 9 9 0 0
BITMAP
2080
6180
E180
6180
6180
6180
6380
6780
3D80
ENDCHAR
STARTCHAR v
ENCODING 118
SWIDTH 500 0
DWIDTH 10 0
BBX 10 10 -1 0
BITMAP
0040
30C0
F1C0
30C0
30C0
3180
3180
3300
1E00
0C00
ENDCHAR
STARTCHAR w
ENCODING 119
SWIDTH 700 0
DWIDTH 14 0
BBX 13 9 0 0
BITMAP
2008
6138
E318
6318
6318
6318
6318
37B0
1EE0
ENDCHAR
STARTCHAR x
ENCODING 120
SWIDTH 500 0
DWIDTH 10 0
BBX 9 9 0 0
BITMAP
C300
E300
6600
3600
3C00
3C00
6E80
C680
C300
ENDCHAR
STARTCHAR y
ENCODING 121
SWIDTH 500 0
DWIDTH 10 0
BBX 9 14 0 -4
BITMAP
2080
6180
E380
6180
6180
6180
6180
6780
6D80
3980
0180
6180
7300
1C00
ENDCHAR
STARTCHAR z
ENCODING 122
SWIDTH 500 0
DWIDTH 10 0
BBX 9 9 0 0
BITMAP
FF00
8700
0E00
0C00
3800
7000
E080
E180
FF00
ENDCHAR
STARTCHAR braceleft
ENCODING 123
SWIDTH 350 0
DWIDTH 7 0
BBX 5 15 1 -1
BITMAP
08
18
30
30
20
20
60
C0
60
20
20
30
30
18
08
ENDCHAR
STARTCHAR bar
ENCODING 124
SWIDTH 500 0
DWIDTH 10 0
BBX 2 13 4 0
BITMAP
C0
C0
C0
C0
C0
C0
C0
C0
C0
C0
C0
C0
C0
ENDCHAR
STARTCHAR braceright
ENCODING 125
SWIDTH 350 0
DWIDTH 7 0
BBX 5 15 1 -1
BITMAP
80
C0
60
60
20
20
30
18
30
20
20
60
60
C0
80
ENDCHAR
STARTCHAR asciitilde
ENCODING 126
SWIDTH 450 0
DWIDTH 9 0
BBX 8 4 0 10
BITMAP
71
D3
CB
8E
ENDCHAR
STARTCHAR uni02BB
ENCODING 699
SWIDTH 500 0
DWIDTH 10 0
BBX 3 3 4 13
BITMAP
60
C0
C0
ENDCHAR
STARTCHAR uni02BC
ENCODING 700
SWIDTH 500 0
DWIDTH 10 0
BBX 3 3 3 13
BITMAP
60
60
C0
ENDCHAR
STARTCHAR uni02BD
ENCODING 701
SWIDTH 500 0
DWIDTH 10 0
BBX 3 3 4 13
BITMAP
C0
C0
60
ENDCHAR
STARTCHAR uni2010
ENCODING 8208
SWIDTH 500 0
DWIDTH 10 0
BBX 6 1 2 6
BITMAP
FC
ENDCHAR
STARTCHAR uni2016
ENCODING 8214
SWIDTH 500 0
DWIDTH 10 0
BBX 5 13 2 0
BITMAP
D8
D8
D8
D8
D8
D8
D8
D8
D8
D8
D8
D8
D8
ENDCHAR
STARTCHAR underscoredbl
ENCODING 8215
SWIDTH 500 0
DWIDTH 10 0
BBX 8 3 1 -4
BITMAP
FF
00
FF
ENDCHAR
STARTCHAR quoteleft
ENCODING 8216
SWIDTH 200 0
DWIDTH 4 0
BBX 3 4 0 11
BITMAP
60
C0
C0
C0
ENDCHAR
STARTCHAR quoteright
ENCODING 8217
SWIDTH 200 0
DWIDTH 4 0
BBX 3 4 0 11
BITMAP
60
60
60
C0
ENDCHAR
STARTCHAR quotereversed
ENCODING 8219
SWIDTH 500 0
DWIDTH 10 0
BBX 3 4 3 11
BITMAP
C0
C0
C0
60
ENDCHAR
STARTCHAR quotedblleft
ENCODING 8220
SWIDTH 400 0
DWIDTH 8 0
BBX 7 4 0 10
BITMAP
66
CC
CC
CC
ENDCHAR
STARTCHAR quotedblright
ENCODING 8221
SWIDTH 400 0
DWIDTH 8 0
BBX 7 4 0 10
BITMAP
66
66
66
CC
ENDCHAR
STARTCHAR quotedblbase
ENCODING 8222
SWIDTH 400 0
DWIDTH 8 0
BBX 7 4 0 -1
BITMAP
66
66
66
CC
ENDCHAR
STARTCHAR uni201F
ENCODING 8223
SWIDTH 400 0
DWIDTH 8 0
BBX 7 4 0 10
BITMAP
CC
CC
CC
66
ENDCHAR
STARTCHAR uni203E
ENCODING 8254
SWIDTH 500 0
DWIDTH 10 0
BBX 8 1 1 14
BITMAP
FF
ENDCHAR
STARTCHAR arrowleft
ENCODING 8592
SWIDTH 500 0
DWIDTH 10 0
BBX 9 8 0 2
BITMAP
1000
3000
6000
FF80
FF80
6000
3000
1000
ENDCHAR
STARTCHAR arrowup
ENCODING 8593
SWIDTH 500 0
DWIDTH 10 0
BBX 8 13 1 0
BITMAP
18
3C
7E
DB
18
18
18
18
18
18
18
18
18
ENDCHAR
STARTCHAR arrowright
ENCODING 8594
SWIDTH 500 0
DWIDTH 10 0
BBX 9 8 0 2
BITMAP
0400
0600
0300
FF80
FF80
0300
0600
0400
ENDCHAR
STARTCHAR arrowdown
ENCODING 8595
SWIDTH 500 0
DWIDTH 10 0
BBX 8 13 1 0
BITMAP
18
18
18
18
18
18
18
18
18
DB
7E
3C
18
ENDCHAR
STARTCHAR carriagereturn
ENCODING 8629
SWIDTH 500 0
DWIDTH 10 0
BBX 9 13 0 0
BITMAP
0180
0180
0180
0180
0180
1180
3180
6180
FF80
FF80
6000
3000
1000
ENDCHAR
STARTCHAR arrowdblleft
ENCODING 8656
SWIDTH 500 0
DWIDTH 10 0
BBX 9 9 0 2
BITMAP
0800
1800
3F80
7F80
E000
7F80
3F80
1800
0800
ENDCHAR
STARTCHAR arrowdblup
ENCODING 8657
SWIDTH 500 0
DWIDTH 10 0
BBX 9 13 0 0
BITMAP
0800
1C00
3E00
7700
F780
3600
3600
3600
3600
3600
3600
3600
3600
ENDCHAR
STARTCHAR arrowdblright
ENCODING 8658
SWIDTH 500 0
DWIDTH 10 0
BBX 9 9 0 2
BITMAP
0800
0C00
FE00
FF00
0380
FF00
FE00
0C00
0800
ENDCHAR
STARTCHAR arrowdbldown
ENCODING 8659
SWIDTH 500 0
DWIDTH 10 0
BBX 9 13 0 0
BITMAP
3600
3600
3600
3600
3600
3600
3600
3600
F780
7700
3E00
1C00
0800
ENDCHAR
STARTCHAR arrowdblboth
ENCODING 8660
SWIDTH 500 0
DWIDTH 10 0
BBX 10 9 0 2
BITMAP
1200
3300
7F80
FFC0
C0C0
FFC0
7F80
3300
1200
ENDCHAR
STARTCHAR uni21D5
ENCODING 8661
SWIDTH 500 0
DWIDTH 10 0
BBX 9 13 0 0
BITMAP
0800
1C00
3E00
7700
F780
3600
3600
3600
F780
7700
3E00
1C00
0800
ENDCHAR
STARTCHAR minus
ENCODING 8722
SWIDTH 500 0
DWIDTH 10 0
BBX 8 1 1 6
BITMAP
FF
ENDCHAR
STARTCHAR uni2219
ENCODING 8729
SWIDTH 450 0
DWIDTH 9 0
BBX 5 5 2 4
BITMAP
70
F8
F8
F8
70
ENDCHAR
STARTCHAR radical
ENCODING 8730
SWIDTH 550 0
DWIDTH 11 0
BBX 10 15 0 0
BITMAP
00C0
00C0
00C0
0180
0180
0180
0300
0300
C300
E600
7600
3E00
1C00
0C00
0C00
ENDCHAR
STARTCHAR logicaland
ENCODING 8743
SWIDTH 500 0
DWIDTH 10 0
BBX 8 9 1 0
BITMAP
18
18
3C
3C
66
66
66
C3
C3
ENDCHAR
STARTCHAR logicalor
ENCODING 8744
SWIDTH 500 0
DWIDTH 10 0
BBX 8 9 1 0
BITMAP
C3
C3
66
66
66
3C
3C
18
18
ENDCHAR
STARTCHAR intersection
ENCODING 8745
SWIDTH 500 0
DWIDTH 10 0
BBX 9 11 0 0
BITMAP
3E00
6300
C180
C180
C180
C180
C180
C180
C180
C180
C180
ENDCHAR
STARTCHAR union
ENCODING 8746
SWIDTH 500 0
DWIDTH 10 0
BBX 9 11 0 0
BITMAP
C180
C180
C180
C180
C180
C180
C180
C180
C180
6300
3E00
ENDCHAR
STARTCHAR approxequal
ENCODING 8776
SWIDTH 500 0
DWIDTH 10 0
BBX 8 7 1 3
BITMAP
71
DB
8E
00
71
DB
8E
ENDCHAR
ENDFONT
